<svg width="38" height="38" viewBox="0 0 38 38" fill="none" xmlns="http://www.w3.org/2000/svg">
<path d="M33.166 13.1499C33.15 11.9507 32.9255 10.7634 32.5025 9.64121C32.1358 8.69462 31.5756 7.83495 30.8577 7.11711C30.1399 6.39928 29.2802 5.83908 28.3336 5.4723C27.2258 5.05645 26.0555 4.83159 24.8725 4.8073C23.3493 4.73921 22.8664 4.72021 18.9999 4.72021C15.1334 4.72021 14.6378 4.72021 13.1257 4.8073C11.9432 4.83177 10.7734 5.05662 9.66612 5.4723C8.71938 5.83882 7.85957 6.39894 7.1417 7.1168C6.42384 7.83466 5.86373 8.69447 5.4972 9.64121C5.08052 10.7482 4.85615 11.9182 4.83378 13.1008C4.7657 14.6255 4.74512 15.1085 4.74512 18.975C4.74512 22.8415 4.74512 23.3355 4.83378 24.8491C4.85753 26.0335 5.08078 27.202 5.4972 28.3119C5.86434 29.2583 6.42487 30.1178 7.14297 30.8354C7.86108 31.5529 8.72097 32.1128 9.6677 32.4792C10.772 32.9118 11.942 33.1527 13.1273 33.1917C14.652 33.2598 15.135 33.2804 19.0015 33.2804C22.868 33.2804 23.3635 33.2804 24.8756 33.1917C26.0586 33.1684 27.229 32.9441 28.3368 32.5283C29.2831 32.1611 30.1426 31.6007 30.8604 30.883C31.5781 30.1652 32.1385 29.3057 32.5057 28.3594C32.9221 27.251 33.1454 26.0825 33.1691 24.8966C33.2372 23.3735 33.2578 22.8905 33.2578 19.0225C33.2546 15.156 33.2546 14.6651 33.166 13.1499ZM18.9904 26.2868C14.9465 26.2868 11.6706 23.0109 11.6706 18.967C11.6706 14.9232 14.9465 11.6473 18.9904 11.6473C20.9317 11.6473 22.7935 12.4185 24.1662 13.7912C25.5389 15.1639 26.3101 17.0257 26.3101 18.967C26.3101 20.9084 25.5389 22.7702 24.1662 24.1429C22.7935 25.5156 20.9317 26.2868 18.9904 26.2868ZM26.6015 13.0834C25.6562 13.0834 24.8946 12.3202 24.8946 11.3765C24.8946 11.1525 24.9387 10.9307 25.0245 10.7237C25.1102 10.5167 25.2359 10.3286 25.3943 10.1702C25.5527 10.0118 25.7408 9.88611 25.9478 9.80037C26.1548 9.71463 26.3766 9.67051 26.6007 9.67051C26.8247 9.67051 27.0465 9.71463 27.2535 9.80037C27.4605 9.88611 27.6486 10.0118 27.807 10.1702C27.9654 10.3286 28.0911 10.5167 28.1768 10.7237C28.2626 10.9307 28.3067 11.1525 28.3067 11.3765C28.3067 12.3202 27.5435 13.0834 26.6015 13.0834Z" fill="black" fill-opacity="0.2"/>
<path d="M18.9911 23.7213C21.6171 23.7213 23.7458 21.5925 23.7458 18.9665C23.7458 16.3406 21.6171 14.2118 18.9911 14.2118C16.3651 14.2118 14.2363 16.3406 14.2363 18.9665C14.2363 21.5925 16.3651 23.7213 18.9911 23.7213Z" fill="black" fill-opacity="0.2"/>
</svg>
