<svg width="38" height="38" viewBox="0 0 38 38" fill="none" xmlns="http://www.w3.org/2000/svg">
<path d="M34.6001 9.04155C34.3914 9.48216 34.003 10.0387 33.4349 10.7112C32.8667 11.3836 32.1653 11.9749 31.3304 12.4851C31.3537 12.6706 31.3711 12.8445 31.3826 13.0068C31.4727 15.506 30.874 18.099 30.0435 20.2592C28.4336 24.2756 25.9667 27.508 22.4433 29.7028C18.7691 31.8104 14.4899 32.2587 10.5474 31.8768C7.93001 31.5762 5.35031 30.7215 3.39941 29.1115C6.96755 29.5381 10.2975 28.3242 12.9301 26.3636C10.0057 26.4376 7.88098 24.3222 6.87777 21.8766C7.33 21.9951 7.80308 21.9808 8.23432 21.9462C8.76515 21.8963 9.26904 21.8465 9.7648 21.7375C7.90011 21.1359 6.26852 20.0299 5.41688 18.3635C4.91733 17.3076 4.69177 16.3021 4.68644 15.1634C5.56019 15.6234 6.61121 16.0718 7.57347 16.033C6.12024 14.8019 4.95521 13.2286 4.73863 11.4242C4.60189 9.91962 4.97838 8.54622 5.52127 7.26756C7.6951 9.65662 10.1342 11.6227 12.9475 12.8329C14.8715 13.6208 16.79 14.0421 18.7737 14.0503C18.5447 12.2785 18.7228 10.5649 19.5564 9.11105C20.5374 7.54795 21.9687 6.64105 23.5739 6.18924C25.8707 5.60027 28.1109 6.43221 29.5218 8.03276C31.0434 7.86841 32.501 7.19338 33.6611 6.50228C33.1681 7.99498 32.2083 9.47914 30.8088 10.1893C32.1413 9.94263 33.4128 9.54817 34.6001 9.04155Z" fill="black" fill-opacity="0.2"/>
</svg>
