<svg width="24" height="24" viewBox="0 0 24 24" fill="none" xmlns="http://www.w3.org/2000/svg">
<path fill-rule="evenodd" clip-rule="evenodd" d="M11 6.41421V20C11 20.5523 11.4477 21 12 21C12.5523 21 13 20.5523 13 20V6.41421L18.2929 11.7071C18.6834 12.0976 19.3166 12.0976 19.7071 11.7071C20.0976 11.3166 20.0976 10.6834 19.7071 10.2929L12.7075 3.29326C12.7074 3.29314 12.7072 3.29301 12.7071 3.29289C12.7064 3.29219 12.7057 3.29148 12.705 3.29078C12.5242 3.11106 12.2751 3 12 3C11.8644 3 11.7351 3.02699 11.6172 3.07588C11.5001 3.12432 11.3904 3.19595 11.295 3.29078C11.2943 3.29148 11.2936 3.29219 11.2929 3.29289C11.2928 3.29301 11.2927 3.29314 11.2925 3.29326L4.29289 10.2929C3.90237 10.6834 3.90237 11.3166 4.29289 11.7071C4.68342 12.0976 5.31658 12.0976 5.70711 11.7071L11 6.41421Z" fill="black"/>
</svg>
