<svg width="110" height="110" viewBox="0 0 110 110" fill="none" xmlns="http://www.w3.org/2000/svg">
<g opacity="0.2">
<path fill-rule="evenodd" clip-rule="evenodd" d="M74.823 68.2871L99.4813 92.9454C100.348 93.8127 100.835 94.9888 100.834 96.215C100.834 97.4411 100.346 98.6168 99.479 99.4835C98.6117 100.35 97.4356 100.837 96.2095 100.836C94.9834 100.836 93.8076 100.349 92.9409 99.4813L68.2826 74.8229C60.9112 80.5323 51.6418 83.219 42.3598 82.3366C33.0779 81.4542 24.4807 77.0689 18.3173 70.0728C12.1538 63.0767 8.88712 53.9954 9.18165 44.6763C9.47618 35.3571 13.3098 26.5002 19.9028 19.9073C26.4957 13.3144 35.3526 9.48069 44.6717 9.18616C53.9909 8.89163 63.0722 12.1584 70.0683 18.3218C77.0644 24.4852 81.4497 33.0824 82.3321 42.3643C83.2145 51.6463 80.5278 60.9158 74.8184 68.2871H74.823ZM45.8334 73.3333C53.1269 73.3333 60.1216 70.436 65.2788 65.2788C70.4361 60.1215 73.3334 53.1268 73.3334 45.8333C73.3334 38.5399 70.4361 31.5452 65.2788 26.3879C60.1216 21.2307 53.1269 18.3333 45.8334 18.3333C38.54 18.3333 31.5452 21.2307 26.388 26.3879C21.2307 31.5452 18.3334 38.5399 18.3334 45.8333C18.3334 53.1268 21.2307 60.1215 26.388 65.2788C31.5452 70.436 38.54 73.3333 45.8334 73.3333V73.3333Z" fill="white"/>
</g>
</svg>
